<?xml version="1.0" encoding="UTF-8" standalone="no"?>
<!DOCTYPE svg PUBLIC "-//W3C//DTD SVG 1.1//EN" "http://www.w3.org/Graphics/SVG/1.1/DTD/svg11.dtd">
<svg width="100%" height="100%" viewBox="0 0 200 120" version="1.1" xmlns="http://www.w3.org/2000/svg" xmlns:xlink="http://www.w3.org/1999/xlink" xml:space="preserve" xmlns:serif="http://www.serif.com/" style="fill-rule:evenodd;clip-rule:evenodd;stroke-linejoin:round;stroke-miterlimit:2;">
    <g transform="matrix(1,0,0,1,3.75695,0)">
        <g transform="matrix(1,0,0,1,58.7725,52.0459)">
            <path d="M0,5.46L2.844,0C1.941,1.011 0.59,2.08 -1.084,2.08L-1.092,2.08C-2.168,3.201 -3.66,3.789 -5.434,3.789C-5.522,3.789 -5.61,3.788 -5.699,3.785C-6.118,3.772 -6.507,3.728 -6.854,3.671L-6.769,5.46L0,5.46Z" style="fill:rgb(248,236,40);fill-rule:nonzero;"/>
        </g>
        <g transform="matrix(1,0,0,1,79.0591,67.8547)">
            <path d="M0,-14.966C0,-20.496 -1.338,-25.719 -3.708,-30.329C-4.141,-29.388 -4.732,-28.582 -5.482,-27.927C-5.659,-27.772 -5.909,-27.625 -6.217,-27.487C-5.785,-26.892 -5.884,-25.942 -6.527,-24.579L-6.544,-24.545C-6.663,-24.335 -6.823,-24.124 -7.019,-23.912L-7.019,-19.403L-11.779,-17.481C-13.68,-9.18 -14.828,-4.786 -15.193,-4.421C-15.354,-4.261 -15.778,-3.836 -26.13,-3.561C-26.444,-2.131 -27.754,2.75 -32.08,9.165L-32.08,9.965C-31.661,9.987 -31.228,10.008 -30.772,10.025L-30.687,10.035C-28.419,10.508 -26.663,10.853 -25.252,11.132C-22.44,11.685 -21.388,11.893 -20.951,12.184C-20.736,12.327 -20.453,12.769 -18.999,15.363C-7.762,9.889 0,-1.649 0,-14.966" style="fill:rgb(248,236,40);fill-rule:nonzero;"/>
        </g>
        <g transform="matrix(1,0,0,1,33.6626,75.4985)">
            <path d="M0,-4.226C-2.253,-3.144 -0.541,0.732 -0.541,0.732C-0.541,0.732 -1.296,-3.796 2.302,-3.706C2.095,-4.245 1.527,-4.958 0,-4.226" style="fill:rgb(248,236,40);fill-rule:nonzero;"/>
        </g>
        <g transform="matrix(1,0,0,1,11.6299,50.9557)">
            <path d="M0,1.933C0,16.579 9.389,29.073 22.463,33.715C19.265,31.646 20.05,28.249 20.05,28.249C20.05,28.249 15.001,22.481 19.418,18.357C23.301,14.732 26.139,16.904 27.283,17.989C28.788,15.6 30.408,12.727 31.686,8.99C29.797,9.345 26.718,9.231 23.926,5.983C19.666,1.028 22.366,-5.182 27.01,-4.326C24.79,-6.797 21.968,-12.63 21.841,-12.894C21.763,-13.055 21.787,-13.249 21.903,-13.385C22.019,-13.523 22.205,-13.579 22.377,-13.53C22.387,-13.527 23.455,-13.233 24.693,-13.535C25.533,-13.739 25.725,-15.578 25.726,-16.207C25.726,-16.437 25.899,-16.631 26.129,-16.659C26.359,-16.683 26.572,-16.536 26.625,-16.311C26.656,-16.181 27.381,-13.092 27.381,-9.968C27.381,-7.521 27.93,-6.046 28.116,-5.614C28.536,-6.469 29.058,-7.289 29.648,-8.017C31.023,-9.865 33.268,-11.878 36.097,-10.816L36.173,-10.788L36.237,-10.736C38.517,-8.913 40.632,-6.93 41.883,-5.716C41.894,-6.248 42.013,-6.758 42.243,-7.246C42.648,-8.102 43.331,-8.743 43.98,-9.196C43.683,-10.22 43.753,-11.184 44.194,-12.066C44.821,-13.318 46.064,-14.125 47.004,-14.583C46.987,-14.59 46.97,-14.598 46.954,-14.606C46.754,-14.706 46.641,-14.923 46.675,-15.145C46.706,-15.342 46.998,-17.095 47.902,-18.001C48.018,-18.116 48.183,-18.171 48.345,-18.145C48.352,-18.144 48.425,-18.132 48.554,-18.116C48.534,-20.767 46.383,-21.623 46.282,-21.661C46.059,-21.746 45.923,-21.973 45.954,-22.21C45.984,-22.446 46.172,-22.63 46.409,-22.656C46.423,-22.657 47.917,-22.833 48.669,-23.809C49.25,-24.565 48.822,-25.967 48.608,-26.445C48.517,-26.647 48.566,-26.885 48.729,-27.036C48.893,-27.185 49.134,-27.214 49.329,-27.106C49.343,-27.098 50.46,-26.498 51.681,-26.583C46.477,-29.874 40.314,-31.782 33.715,-31.782C15.124,-31.782 0,-16.657 0,1.933" style="fill:rgb(248,236,40);fill-rule:nonzero;"/>
        </g>
        <g transform="matrix(1,0,0,1,56.1875,54.6231)">
            <path d="M0,-0.585C-1.176,-0.658 -2.467,-0.733 -3.58,-0.798L-4.329,-0.16L-4.319,0.039C-3.955,0.107 -3.522,0.166 -3.052,0.179C-1.848,0.213 -0.826,-0.043 0,-0.585" style="fill:white;fill-rule:nonzero;"/>
        </g>
        <g transform="matrix(1,0,0,1,53.7427,50.9314)">
            <path d="M0,1.928C1.27,2.002 2.638,2.084 3.753,2.157C5.556,2.275 6.997,0.662 7.719,-0.347C6.825,-0.246 5.821,-0.187 4.69,-0.187C4.027,-0.187 3.314,-0.21 2.562,-0.253L0,1.928Z" style="fill:white;fill-rule:nonzero;"/>
        </g>
        <g transform="matrix(1,0,0,1,54.5327,49.8765)">
            <path d="M0,-2.606L-1.156,-1.329L0.333,-0.336C4.021,0 6.651,-0.186 8.521,-0.587L9.509,-2.486L0,-2.606Z" style="fill:white;fill-rule:nonzero;"/>
        </g>
        <g transform="matrix(1,0,0,1,51.3921,73.5445)">
            <path d="M0,-27.484L-2.284,-25.44C-2.945,-29.167 0,-27.484 0,-27.484M-11.689,0.793C-10.38,2.03 -6.785,2.913 -5.443,3.208L-5.443,3.159L-5.354,3.028C-0.351,-4.345 0.595,-9.784 0.604,-9.838L0.673,-10.258L1.099,-10.269C5.013,-10.37 10.732,-10.621 11.743,-10.879C12.199,-11.99 13.923,-19.199 14.943,-23.662L15.003,-23.924L19.618,-25.788L19.618,-28.72C18.963,-28.256 18.133,-27.79 17.125,-27.325C15.729,-26.68 14.477,-26.258 14.228,-26.176L13.666,-25.874L8.005,-15.008L-0.371,-15.008L-0.587,-19.539L3.323,-22.866L0.419,-24.802L2.206,-26.776C1.537,-27.444 -0.052,-29.003 -1.987,-30.692C-2.774,-29.921 -4.377,-27.585 -3.756,-21.654L-6.28,-21.654L-6.28,-14.171C-6.28,-14.171 -6.5,-14.057 -6.883,-13.921C-8.289,-9.558 -10.151,-6.336 -11.834,-3.693C-11.44,-2.312 -11.689,0.793 -11.689,0.793" style="fill:rgb(43,171,226);fill-rule:nonzero;"/>
        </g>
        <g transform="matrix(1,0,0,1,43.6216,101.215)">
            <path d="M0,-14.724C-0.619,-14.798 -1.228,-14.889 -1.818,-15.001C-4.701,-14.913 -6.779,-15.286 -8.275,-15.898C-8.248,-13.397 -8.176,-10.757 -8.092,-8.597L-8.054,-7.612L-8.885,-8.144C-9.825,-8.746 -12.588,-10.3 -14.083,-10.226C-14.856,-10.191 -16.022,-9.549 -17.258,-8.87C-18.867,-7.984 -20.691,-6.981 -22.309,-6.981C-24.141,-6.981 -25.161,-7.707 -25.771,-8.142C-25.864,-8.208 -25.972,-8.285 -26.052,-8.335C-26.766,-7.448 -29.875,-2.538 -32.186,1.174C-28.552,-0.361 -22.119,-4.457 -22.045,-4.504L-21.812,-4.654L-21.559,-4.54C-15.688,-1.922 -5.653,-2.301 -3.734,-2.402C-2.842,-4.702 -1.305,-10.016 0,-14.724" style="fill:rgb(43,171,226);fill-rule:nonzero;"/>
        </g>
        <g transform="matrix(1,0,0,1,51.3921,46.4215)">
            <path d="M0,-0.361C0,-0.361 -2.945,-2.044 -2.284,1.683L0,-0.361Z" style="fill:rgb(1,1,1);fill-rule:nonzero;"/>
        </g>
        <g transform="matrix(1,0,0,1,68.2119,81.5164)">
            <path d="M0,16.801C-1.216,16.133 -4.399,10.545 -8.125,3.862C-9.261,1.824 -10.434,-0.28 -10.713,-0.642C-11.061,-0.821 -12.488,-1.102 -14.604,-1.519C-16.009,-1.796 -17.755,-2.139 -20.008,-2.609C-27.021,-2.885 -29.779,-3.669 -30.768,-4.082C-31.195,-3.469 -31.759,-2.627 -31.582,-1.103C-31.338,0.992 -29.721,2.795 -27.556,3.381C-22.548,4.738 -14.573,4.034 -14.493,4.028L-14.01,3.984L-13.243,8.971C-12.39,9.755 -7.66,14.106 -4.892,16.792L-4.706,16.972L-4.74,17.23C-5.113,20.029 -4.624,20.747 -4.494,20.883L7.277,20.883C4.997,19.429 2.963,18.363 1.406,17.548C0.874,17.27 0.401,17.022 0,16.801" style="fill:rgb(43,171,226);fill-rule:nonzero;"/>
        </g>
        <g transform="matrix(1,0,0,1,60.9585,98.7356)">
            <path d="M0,-74.886C-0.194,-74.994 -0.436,-74.965 -0.599,-74.816C-0.763,-74.665 -0.812,-74.427 -0.721,-74.225C-0.507,-73.747 -0.079,-72.345 -0.66,-71.589C-1.411,-70.613 -2.906,-70.437 -2.919,-70.436C-3.156,-70.41 -3.344,-70.226 -3.375,-69.99C-3.406,-69.753 -3.27,-69.526 -3.047,-69.441C-2.945,-69.403 -0.795,-68.547 -0.775,-65.896C-0.903,-65.912 -0.977,-65.924 -0.984,-65.925C-1.146,-65.95 -1.311,-65.896 -1.427,-65.781C-2.331,-64.875 -2.623,-63.122 -2.653,-62.925C-2.688,-62.703 -2.575,-62.486 -2.375,-62.386C-2.358,-62.378 -2.341,-62.37 -2.325,-62.363C-3.265,-61.905 -4.508,-61.098 -5.134,-59.846C-5.576,-58.964 -5.646,-58 -5.349,-56.976C-5.998,-56.523 -6.681,-55.882 -7.085,-55.026C-7.315,-54.538 -7.435,-54.028 -7.446,-53.496C-8.696,-54.71 -10.812,-56.693 -13.091,-58.516L-13.155,-58.568L-13.232,-58.596C-16.061,-59.657 -18.306,-57.645 -19.68,-55.797C-20.271,-55.069 -20.793,-54.249 -21.212,-53.394C-21.19,-53.342 -21.172,-53.302 -21.162,-53.281C-19.895,-51.497 -19.989,-51.196 -20.279,-50.942C-20.381,-50.851 -20.489,-50.809 -20.605,-50.809C-20.934,-50.809 -21.329,-51.146 -21.863,-51.639C-22.011,-51.776 -22.163,-51.933 -22.318,-52.106C-26.963,-52.962 -29.663,-46.752 -25.403,-41.797C-22.61,-38.549 -19.532,-38.435 -17.643,-38.79C-18.92,-35.053 -20.541,-32.18 -22.045,-29.791C-23.19,-30.876 -26.027,-33.048 -29.91,-29.423C-34.327,-25.299 -29.279,-19.531 -29.279,-19.531C-29.279,-19.531 -30.063,-16.134 -26.866,-14.065C-39.94,-18.707 -49.329,-31.2 -49.329,-45.847C-49.329,-64.437 -34.205,-79.562 -15.614,-79.562C-9.014,-79.562 -2.852,-77.654 2.353,-74.363C1.132,-74.278 0.015,-74.878 0,-74.886M-2.85,-18.697C-3.287,-18.988 -4.339,-19.196 -7.151,-19.749C-8.563,-20.028 -10.318,-20.373 -12.586,-20.846L-12.672,-20.856C-13.127,-20.873 -13.561,-20.894 -13.979,-20.916L-13.979,-21.716C-9.653,-28.131 -8.343,-33.012 -8.03,-34.442C2.322,-34.717 2.747,-35.142 2.908,-35.302C3.273,-35.667 4.421,-40.061 6.321,-48.362L11.082,-50.283L11.082,-54.793C11.278,-55.005 11.438,-55.216 11.556,-55.426L11.574,-55.46C12.216,-56.823 12.316,-57.773 11.883,-58.368C12.192,-58.506 12.441,-58.653 12.619,-58.808C13.368,-59.463 13.959,-60.269 14.393,-61.21C16.762,-56.6 18.101,-51.377 18.101,-45.847C18.101,-32.53 10.339,-20.991 -0.898,-15.518C-2.353,-18.112 -2.636,-18.554 -2.85,-18.697M-27.837,-22.505C-27.837,-22.505 -29.549,-26.381 -27.296,-27.463C-25.769,-28.196 -25.201,-27.482 -24.994,-26.944C-28.592,-27.033 -27.837,-22.505 -27.837,-22.505M-6.093,-49.196L-7.582,-50.188L-6.426,-51.465L3.083,-51.345L2.095,-49.447C0.226,-49.045 -2.404,-48.859 -6.093,-49.196M-7.885,-42.905C-7.796,-42.902 -7.708,-42.901 -7.62,-42.901C-5.846,-42.901 -4.354,-43.489 -3.278,-44.61L-3.271,-44.61C-1.596,-44.61 -0.245,-45.679 0.658,-46.69L-2.186,-41.23L-8.955,-41.23L-9.04,-43.019C-8.693,-42.962 -8.304,-42.918 -7.885,-42.905M-2.525,-47.991C-1.395,-47.991 -0.391,-48.05 0.503,-48.152C-0.219,-47.142 -1.66,-45.53 -3.463,-45.647C-4.578,-45.72 -5.946,-45.802 -7.216,-45.876L-4.654,-48.057C-3.901,-48.014 -3.189,-47.991 -2.525,-47.991M-9.1,-44.273L-8.351,-44.91C-7.238,-44.846 -5.947,-44.771 -4.771,-44.698C-5.597,-44.156 -6.619,-43.9 -7.823,-43.934C-8.293,-43.947 -8.726,-44.005 -9.09,-44.074L-9.1,-44.273ZM-6.156,-54.581C-5.807,-55.324 -5.162,-55.874 -4.575,-56.252C-2.907,-56.316 5.751,-56.695 10.234,-57.828L10.603,-57.854L10.655,-57.861C10.716,-57.87 10.963,-57.883 11.05,-57.768C11.08,-57.728 11.319,-57.342 10.65,-55.917C9.769,-54.395 5.904,-52.86 4.378,-52.359L-6.279,-52.494C-6.495,-53.248 -6.454,-53.949 -6.156,-54.581M-15.847,-39.363L-15.847,-46.845L-13.323,-46.845C-13.943,-52.776 -12.341,-55.112 -11.553,-55.883C-9.619,-54.194 -8.029,-52.635 -7.361,-51.967L-9.147,-49.993L-6.243,-48.057L-10.153,-44.73L-9.938,-40.199L-1.562,-40.199L4.099,-51.065L4.661,-51.367C4.911,-51.449 6.163,-51.871 7.559,-52.516C8.566,-52.981 9.397,-53.448 10.051,-53.911L10.051,-50.979L5.437,-49.115L5.377,-48.853C4.356,-44.39 2.633,-37.181 2.176,-36.07C1.166,-35.812 -4.553,-35.561 -8.468,-35.46L-8.894,-35.449L-8.963,-35.03C-8.972,-34.975 -9.917,-29.536 -14.921,-22.163L-15.01,-22.032L-15.01,-21.983C-16.352,-22.278 -19.947,-23.161 -21.256,-24.398C-21.256,-24.398 -21.006,-27.503 -21.401,-28.884C-19.717,-31.527 -17.855,-34.749 -16.449,-39.112C-16.066,-39.248 -15.847,-39.363 -15.847,-39.363M11.94,-59.583C10.486,-58.311 1.54,-57.526 -4.369,-57.291C-4.586,-58.054 -4.535,-58.74 -4.215,-59.382C-3.434,-60.948 -1.287,-61.707 -0.892,-61.836L-0.873,-61.836C0.218,-61.545 1.513,-61.382 2.841,-61.382C2.893,-61.382 2.946,-61.382 2.999,-61.383C4.874,-61.401 7.75,-61.754 10.804,-63.335C12.179,-64.048 13.31,-64.957 14.234,-65.938C14.281,-63.123 13.507,-60.954 11.94,-59.583M16.819,-72.977C16.586,-71.464 14.895,-66.615 10.33,-64.25C5.543,-61.772 0.685,-62.222 -1.56,-63.147C-1.443,-63.649 -1.211,-64.39 -0.857,-64.866C0.589,-64.67 6.984,-63.948 9.872,-65.987C12.563,-67.886 14.851,-72.63 15.529,-74.135C16.151,-73.86 16.883,-73.393 16.819,-72.977M6.199,-76.563C6.692,-76.109 7.449,-75.678 8.562,-75.632C9.902,-75.574 10.817,-76.189 11.367,-76.75C11.92,-75.233 12.66,-74.317 13.572,-74.022C13.827,-73.94 14.069,-73.915 14.292,-73.925C13.944,-73.196 13.424,-72.173 12.79,-71.106C11.343,-72.215 8.365,-73.85 4.978,-71.996C2.742,-70.495 2.209,-68.439 2.051,-65.647C1.369,-65.678 0.751,-65.728 0.255,-65.777C0.284,-67.82 -0.726,-69.057 -1.571,-69.732C-0.991,-69.957 -0.324,-70.336 0.157,-70.961C0.761,-71.746 0.72,-72.782 0.56,-73.556C1.548,-73.259 3.057,-73.072 4.376,-74.018C5.464,-74.798 5.967,-75.782 6.199,-76.563M-38.896,-2.061L-39.149,-2.174L-39.382,-2.025C-39.456,-1.978 -45.889,2.119 -49.522,3.654C-47.212,-0.059 -44.103,-4.968 -43.389,-5.856C-43.309,-5.805 -43.201,-5.729 -43.108,-5.662C-42.498,-5.228 -41.478,-4.501 -39.646,-4.501C-38.028,-4.501 -36.204,-5.504 -34.595,-6.39C-33.359,-7.07 -32.193,-7.711 -31.419,-7.746C-29.925,-7.821 -27.162,-6.267 -26.222,-5.664L-25.391,-5.132L-25.429,-6.117C-25.513,-8.278 -25.584,-10.917 -25.612,-13.418C-24.116,-12.806 -22.038,-12.434 -19.155,-12.522C-18.565,-12.409 -17.956,-12.319 -17.337,-12.244C-18.642,-7.536 -20.179,-2.222 -21.071,0.078C-22.99,0.178 -33.025,0.557 -38.896,-2.061M2.759,3.664C2.629,3.528 2.14,2.809 2.513,0.01L2.547,-0.247L2.361,-0.427C-0.406,-3.114 -5.137,-7.464 -5.99,-8.248L-6.757,-13.236L-7.239,-13.192C-7.319,-13.185 -15.295,-12.481 -20.303,-13.838C-22.467,-14.424 -24.085,-16.227 -24.328,-18.323C-24.505,-19.846 -23.942,-20.688 -23.515,-21.301C-22.526,-20.888 -19.768,-20.104 -12.755,-19.828C-10.501,-19.359 -8.755,-19.015 -7.35,-18.739C-5.234,-18.322 -3.808,-18.04 -3.46,-17.862C-3.181,-17.499 -2.007,-15.395 -0.872,-13.358C2.854,-6.674 6.038,-1.086 7.253,-0.418C7.655,-0.198 8.127,0.051 8.66,0.329C10.216,1.144 12.25,2.21 14.53,3.664L2.759,3.664ZM9.137,-0.583C8.612,-0.859 8.146,-1.103 7.75,-1.321C6.694,-1.901 2.358,-9.68 0.028,-13.86C-0.169,-14.213 -0.351,-14.539 -0.521,-14.842C10.952,-20.45 18.874,-32.24 18.874,-45.847C18.874,-51.747 17.383,-57.306 14.76,-62.167C15.21,-63.571 15.36,-65.221 15.205,-67.087C16.921,-69.353 17.669,-71.73 17.837,-72.82C18.077,-74.381 15.685,-75.195 15.411,-75.282C15.332,-75.308 15.25,-75.311 15.172,-75.298L15.171,-75.298C15.088,-75.284 15.01,-75.251 14.944,-75.2C14.941,-75.198 14.938,-75.198 14.935,-75.196C14.915,-75.18 14.439,-74.818 13.879,-75.005C13.163,-75.244 12.516,-76.305 12.056,-77.991C12,-78.198 11.822,-78.348 11.609,-78.369C11.399,-78.388 11.194,-78.279 11.098,-78.087C11.09,-78.073 10.322,-76.592 8.605,-76.661C6.913,-76.733 6.379,-77.993 6.359,-78.043C6.268,-78.278 6.021,-78.41 5.776,-78.36C5.53,-78.309 5.356,-78.087 5.364,-77.836C5.367,-77.763 5.406,-76.025 3.776,-74.855C3.645,-74.761 3.509,-74.688 3.372,-74.622C-2.077,-78.23 -8.604,-80.334 -15.614,-80.334C-34.63,-80.334 -50.102,-64.864 -50.102,-45.847C-50.102,-30.685 -40.266,-17.777 -26.641,-13.167C-26.609,-10.693 -26.538,-8.34 -26.493,-7.026C-27.696,-7.708 -29.944,-8.845 -31.466,-8.776C-32.479,-8.73 -33.748,-8.032 -35.091,-7.293C-36.592,-6.467 -38.292,-5.532 -39.646,-5.532C-41.148,-5.532 -41.968,-6.115 -42.51,-6.501C-42.925,-6.797 -43.396,-7.132 -43.898,-6.797C-44.45,-6.429 -48.693,0.35 -51.173,4.359L-51.846,5.448L-50.606,5.129C-47.667,4.373 -40.474,-0.116 -39.06,-1.009C-32.318,1.854 -21.157,1.12 -20.679,1.087L-20.361,1.065L-20.239,0.77C-19.377,-1.317 -17.841,-6.579 -16.508,-11.37C-16.211,-11.364 -15.913,-11.36 -15.614,-11.36C-13.239,-11.36 -10.919,-11.601 -8.678,-12.06C-8.247,-12.083 -7.889,-12.108 -7.629,-12.126L-6.953,-7.734L-6.819,-7.612C-6.767,-7.563 -1.594,-2.82 1.459,0.133C0.979,4.125 2.171,4.63 2.555,4.688L17.914,4.694L16.537,3.754C13.633,1.77 11.035,0.41 9.137,-0.583" style="fill:rgb(1,1,1);fill-rule:nonzero;"/>
        </g>
        <g transform="matrix(1,0,0,1,54.6797,40.9882)">
            <path d="M0,5.253L10.657,5.389C12.183,4.888 16.048,3.353 16.929,1.83C17.598,0.405 17.358,0.02 17.329,-0.02C17.242,-0.136 16.995,-0.123 16.934,-0.113L16.882,-0.106L16.513,-0.081C12.03,1.053 3.372,1.432 1.704,1.495C1.117,1.873 0.472,2.424 0.123,3.166C-0.175,3.799 -0.216,4.499 0,5.253" style="fill:white;fill-rule:nonzero;"/>
        </g>
        <g transform="matrix(1,0,0,1,71.7622,38.8414)">
            <path d="M0,-3.441C-3.054,-1.86 -5.93,-1.506 -7.805,-1.489C-7.858,-1.488 -7.911,-1.488 -7.963,-1.488C-9.291,-1.488 -10.585,-1.651 -11.676,-1.942L-11.696,-1.942C-12.091,-1.813 -14.238,-1.053 -15.019,0.512C-15.338,1.154 -15.39,1.84 -15.172,2.603C-9.264,2.369 -0.317,1.583 1.137,0.311C2.704,-1.06 3.477,-3.229 3.43,-6.044C2.506,-5.063 1.375,-4.154 0,-3.441" style="fill:white;fill-rule:nonzero;"/>
        </g>
        <g transform="matrix(1,0,0,1,61.5186,29.8947)">
            <path d="M0,-4.715C0.16,-3.941 0.201,-2.905 -0.403,-2.12C-0.884,-1.495 -1.551,-1.116 -2.131,-0.891C-1.286,-0.216 -0.276,1.021 -0.305,3.064C0.191,3.113 0.809,3.163 1.491,3.194C1.649,0.402 2.182,-1.654 4.417,-3.155C7.805,-5.009 10.783,-3.374 12.23,-2.265C12.864,-3.332 13.384,-4.355 13.732,-5.084C13.509,-5.074 13.267,-5.099 13.012,-5.181C12.1,-5.476 11.36,-6.392 10.807,-7.909C10.257,-7.348 9.342,-6.734 8.002,-6.791C6.889,-6.837 6.132,-7.268 5.639,-7.722C5.407,-6.942 4.904,-5.957 3.816,-5.177C2.497,-4.231 0.988,-4.418 0,-4.715" style="fill:rgb(43,171,226);fill-rule:nonzero;"/>
        </g>
        <g transform="matrix(1,0,0,1,76.4873,36.9636)">
            <path d="M0,-12.363C-0.678,-10.858 -2.966,-6.114 -5.657,-4.215C-8.545,-2.175 -14.939,-2.898 -16.386,-3.094C-16.74,-2.618 -16.972,-1.877 -17.088,-1.375C-14.844,-0.45 -9.986,0 -5.199,-2.478C-0.634,-4.842 1.058,-9.692 1.29,-11.205C1.354,-11.621 0.623,-12.088 0,-12.363" style="fill:rgb(43,171,226);fill-rule:nonzero;"/>
        </g>
        <g transform="matrix(1,0,0,1,38.2554,47.5545)">
            <path d="M0,-12.91C-0.054,-13.135 -0.266,-13.282 -0.496,-13.258C-0.726,-13.23 -0.899,-13.036 -0.899,-12.806C-0.901,-12.177 -1.093,-10.338 -1.933,-10.134C-3.17,-9.832 -4.239,-10.126 -4.248,-10.129C-4.42,-10.178 -4.606,-10.122 -4.723,-9.984C-4.838,-9.847 -4.863,-9.654 -4.785,-9.493C-4.658,-9.229 -1.835,-3.396 0.385,-0.925C0.54,-0.752 0.692,-0.595 0.84,-0.458C1.375,0.035 1.769,0.372 2.098,0.372C2.214,0.372 2.322,0.33 2.424,0.239C2.714,-0.014 2.809,-0.316 1.542,-2.099C1.531,-2.121 1.513,-2.161 1.491,-2.213C1.304,-2.644 0.756,-4.12 0.756,-6.567C0.756,-9.691 0.031,-12.78 0,-12.91" style="fill:rgb(1,1,1);fill-rule:nonzero;"/>
        </g>
        <g transform="matrix(1,0,0,1,103.446,62.7827)">
            <path d="M0,-2.98C1.452,-2.98 2.122,-3.911 2.122,-5.399C2.122,-6.888 1.452,-7.819 0,-7.819L-2.941,-7.819L-2.941,-2.98L0,-2.98ZM-11.429,-14.52L0.708,-14.52C7.409,-14.52 10.61,-11.132 10.61,-5.399C10.61,0.333 7.409,3.721 0.708,3.721L-2.941,3.721L-2.941,11.54L-11.429,11.54L-11.429,-14.52Z" style="fill:rgb(43,171,226);fill-rule:nonzero;"/>
        </g>
        <g transform="matrix(1,0,0,1,139.631,74.3227)">
            <path d="M0,-26.06L0,0L-7.445,0L-15.301,-13.105L-15.301,0L-22.933,0L-22.933,-26.06L-15.487,-26.06L-7.632,-12.956L-7.632,-26.06L0,-26.06Z" style="fill:rgb(43,171,226);fill-rule:nonzero;"/>
        </g>
        <g transform="matrix(1,0,0,1,142.609,61.293)">
            <path d="M0,-0.001C0,-8.973 3.946,-13.663 12.024,-13.663C14.78,-13.663 17.386,-12.882 18.54,-12.323L18.986,-4.915C18.056,-5.511 16.045,-6.292 13.775,-6.292C10.275,-6.292 8.86,-4.58 8.86,-0.001C8.86,4.541 10.275,6.217 13.775,6.217C16.231,6.217 18.502,5.472 19.545,4.913L18.391,12.471C17.237,12.992 14.743,13.662 12.024,13.662C3.946,13.662 0,8.972 0,-0.001" style="fill:rgb(43,171,226);fill-rule:nonzero;"/>
        </g>
        <g transform="matrix(1,0,0,1,163.829,61.293)">
            <path d="M0,-0.001C0,-8.973 3.946,-13.663 12.025,-13.663C14.78,-13.663 17.386,-12.882 18.54,-12.323L18.987,-4.915C18.056,-5.511 16.046,-6.292 13.774,-6.292C10.275,-6.292 8.86,-4.58 8.86,-0.001C8.86,4.541 10.275,6.217 13.774,6.217C16.231,6.217 18.503,5.472 19.545,4.913L18.391,12.471C17.237,12.992 14.743,13.662 12.025,13.662C3.946,13.662 0,8.972 0,-0.001" style="fill:rgb(43,171,226);fill-rule:nonzero;"/>
        </g>
    </g>
</svg>
