<?xml version="1.0" encoding="UTF-8" standalone="no"?>
<!DOCTYPE svg PUBLIC "-//W3C//DTD SVG 1.1//EN" "http://www.w3.org/Graphics/SVG/1.1/DTD/svg11.dtd">
<svg width="100%" height="100%" viewBox="0 0 42 42" version="1.1" xmlns="http://www.w3.org/2000/svg" xmlns:xlink="http://www.w3.org/1999/xlink" xml:space="preserve" xmlns:serif="http://www.serif.com/" style="fill-rule:evenodd;clip-rule:evenodd;stroke-linejoin:round;stroke-miterlimit:2;">
    <g transform="matrix(0.179345,0,0,0.179345,-733.562,-2898.16)">
        <path d="M4180.47,16249.9C4194.27,16236.1 4216.67,16236.1 4230.47,16249.9C4244.27,16263.7 4244.27,16286.1 4230.47,16299.9C4216.67,16313.7 4194.27,16313.7 4180.47,16299.9C4166.67,16286.1 4166.67,16263.7 4180.47,16249.9ZM4142.97,16212.4C4177.46,16177.9 4233.47,16177.9 4267.97,16212.4C4302.46,16246.9 4302.46,16302.9 4267.97,16337.4C4233.47,16371.9 4177.46,16371.9 4142.97,16337.4C4108.47,16302.9 4108.47,16246.9 4142.97,16212.4ZM4143.86,16213L4179.21,16248.4M4232.24,16248.4L4267.6,16213M4232.24,16301.4L4267.6,16336.8M4179.21,16301.4L4143.86,16336.8" style="fill:none;stroke:url(#_Radial1);stroke-width:23.23px;"/>
    </g>
    <defs>
        <radialGradient id="_Radial1" cx="0" cy="0" r="1" gradientUnits="userSpaceOnUse" gradientTransform="matrix(129.811,-145.438,107.33,129.811,4210.39,16405.1)"><stop offset="0" style="stop-color:rgb(249,97,103);stop-opacity:1"/><stop offset="1" style="stop-color:rgb(47,197,192);stop-opacity:1"/></radialGradient>
    </defs>
</svg>
